<mxfile host="app.diagrams.net" modified="2024-02-21T17:15:40.533Z" agent="Mozilla/5.0 (Macintosh; Intel Mac OS X 10_15_7) AppleWebKit/537.36 (KHTML, like Gecko) Chrome/121.0.0.0 Safari/537.36" etag="vdSWlBgOubuOpRoWKJay" version="23.1.5" type="device" pages="2">
  <diagram name="Page-1" id="OdyrHmC6sfOLj6qiyrPX">
    <mxGraphModel dx="1234" dy="721" grid="0" gridSize="10" guides="0" tooltips="1" connect="1" arrows="1" fold="1" page="0" pageScale="1" pageWidth="850" pageHeight="1100" math="0" shadow="0">
      <root>
        <mxCell id="0" />
        <mxCell id="1" parent="0" />
        <mxCell id="MYE65sH3s9XC-EsRgawy-8" value="AWS Cloud" style="points=[[0,0],[0.25,0],[0.5,0],[0.75,0],[1,0],[1,0.25],[1,0.5],[1,0.75],[1,1],[0.75,1],[0.5,1],[0.25,1],[0,1],[0,0.75],[0,0.5],[0,0.25]];outlineConnect=0;gradientColor=none;html=1;whiteSpace=wrap;fontSize=12;fontStyle=0;container=1;pointerEvents=0;collapsible=0;recursiveResize=0;shape=mxgraph.aws4.group;grIcon=mxgraph.aws4.group_aws_cloud;strokeColor=#232F3E;fillColor=none;verticalAlign=top;align=left;spacingLeft=30;fontColor=#232F3E;dashed=0;" parent="1" vertex="1">
          <mxGeometry x="154" y="615" width="746" height="828" as="geometry" />
        </mxCell>
        <mxCell id="MYE65sH3s9XC-EsRgawy-9" value="Region" style="points=[[0,0],[0.25,0],[0.5,0],[0.75,0],[1,0],[1,0.25],[1,0.5],[1,0.75],[1,1],[0.75,1],[0.5,1],[0.25,1],[0,1],[0,0.75],[0,0.5],[0,0.25]];outlineConnect=0;gradientColor=none;html=1;whiteSpace=wrap;fontSize=12;fontStyle=0;container=1;pointerEvents=0;collapsible=0;recursiveResize=0;shape=mxgraph.aws4.group;grIcon=mxgraph.aws4.group_region;strokeColor=#147EBA;fillColor=none;verticalAlign=top;align=left;spacingLeft=30;fontColor=#147EBA;dashed=1;" parent="MYE65sH3s9XC-EsRgawy-8" vertex="1">
          <mxGeometry x="20" y="30" width="710" height="779" as="geometry" />
        </mxCell>
        <mxCell id="E9s7Cj_5dPcn2JG_jbMc-51" value="" style="rounded=1;arcSize=10;dashed=1;strokeColor=#F59D56;fillColor=none;gradientColor=none;dashPattern=8 4;strokeWidth=2;" parent="MYE65sH3s9XC-EsRgawy-9" vertex="1">
          <mxGeometry x="476" y="525" width="213" height="160.5" as="geometry" />
        </mxCell>
        <mxCell id="E9s7Cj_5dPcn2JG_jbMc-39" value="React Web App" style="shape=image;html=1;verticalAlign=top;verticalLabelPosition=bottom;labelBackgroundColor=#ffffff;imageAspect=0;aspect=fixed;image=https://cdn1.iconfinder.com/data/icons/unicons-line-vol-5/24/react-128.png" parent="MYE65sH3s9XC-EsRgawy-9" vertex="1">
          <mxGeometry x="376" y="526" width="76" height="76" as="geometry" />
        </mxCell>
        <mxCell id="E9s7Cj_5dPcn2JG_jbMc-42" value="AWS CloudFormation&lt;br&gt;(CDK)" style="sketch=0;points=[[0,0,0],[0.25,0,0],[0.5,0,0],[0.75,0,0],[1,0,0],[0,1,0],[0.25,1,0],[0.5,1,0],[0.75,1,0],[1,1,0],[0,0.25,0],[0,0.5,0],[0,0.75,0],[1,0.25,0],[1,0.5,0],[1,0.75,0]];points=[[0,0,0],[0.25,0,0],[0.5,0,0],[0.75,0,0],[1,0,0],[0,1,0],[0.25,1,0],[0.5,1,0],[0.75,1,0],[1,1,0],[0,0.25,0],[0,0.5,0],[0,0.75,0],[1,0.25,0],[1,0.5,0],[1,0.75,0]];outlineConnect=0;fontColor=#232F3E;fillColor=#E7157B;strokeColor=#ffffff;dashed=0;verticalLabelPosition=bottom;verticalAlign=top;align=center;html=1;fontSize=12;fontStyle=0;aspect=fixed;shape=mxgraph.aws4.resourceIcon;resIcon=mxgraph.aws4.cloudformation;" parent="MYE65sH3s9XC-EsRgawy-9" vertex="1">
          <mxGeometry x="515" y="578.5" width="64" height="64" as="geometry" />
        </mxCell>
        <mxCell id="E9s7Cj_5dPcn2JG_jbMc-43" value="AWS IAM" style="outlineConnect=0;dashed=0;verticalLabelPosition=bottom;verticalAlign=top;align=center;html=1;shape=mxgraph.aws3.iam;fillColor=#759C3E;gradientColor=none;" parent="MYE65sH3s9XC-EsRgawy-9" vertex="1">
          <mxGeometry x="623" y="577.5" width="32" height="66" as="geometry" />
        </mxCell>
        <mxCell id="E9s7Cj_5dPcn2JG_jbMc-52" value="Additional Services" style="text;html=1;align=center;verticalAlign=middle;resizable=0;points=[];autosize=1;strokeColor=none;fillColor=none;" parent="MYE65sH3s9XC-EsRgawy-9" vertex="1">
          <mxGeometry x="517.5" y="540" width="130" height="30" as="geometry" />
        </mxCell>
        <mxCell id="E9s7Cj_5dPcn2JG_jbMc-22" value="Initialize&lt;br&gt;Step Function" style="outlineConnect=0;dashed=0;verticalLabelPosition=bottom;verticalAlign=top;align=center;html=1;shape=mxgraph.aws3.lambda_function;fillColor=#F58534;gradientColor=none;" parent="MYE65sH3s9XC-EsRgawy-9" vertex="1">
          <mxGeometry x="316" y="194" width="69" height="72" as="geometry" />
        </mxCell>
        <mxCell id="E9s7Cj_5dPcn2JG_jbMc-3" value="Image Bucket" style="sketch=0;points=[[0,0,0],[0.25,0,0],[0.5,0,0],[0.75,0,0],[1,0,0],[0,1,0],[0.25,1,0],[0.5,1,0],[0.75,1,0],[1,1,0],[0,0.25,0],[0,0.5,0],[0,0.75,0],[1,0.25,0],[1,0.5,0],[1,0.75,0]];outlineConnect=0;fontColor=#232F3E;fillColor=#7AA116;strokeColor=#ffffff;dashed=0;verticalLabelPosition=bottom;verticalAlign=top;align=center;html=1;fontSize=12;fontStyle=0;aspect=fixed;shape=mxgraph.aws4.resourceIcon;resIcon=mxgraph.aws4.s3;" parent="MYE65sH3s9XC-EsRgawy-9" vertex="1">
          <mxGeometry x="196" y="191" width="78" height="78" as="geometry" />
        </mxCell>
        <mxCell id="E9s7Cj_5dPcn2JG_jbMc-24" style="edgeStyle=orthogonalEdgeStyle;rounded=0;orthogonalLoop=1;jettySize=auto;html=1;" parent="MYE65sH3s9XC-EsRgawy-9" source="E9s7Cj_5dPcn2JG_jbMc-3" target="E9s7Cj_5dPcn2JG_jbMc-22" edge="1">
          <mxGeometry relative="1" as="geometry" />
        </mxCell>
        <mxCell id="WIWH8btti3kdOPlmvlpw-1" value="Amazon Cognito" style="sketch=0;points=[[0,0,0],[0.25,0,0],[0.5,0,0],[0.75,0,0],[1,0,0],[0,1,0],[0.25,1,0],[0.5,1,0],[0.75,1,0],[1,1,0],[0,0.25,0],[0,0.5,0],[0,0.75,0],[1,0.25,0],[1,0.5,0],[1,0.75,0]];outlineConnect=0;fontColor=#232F3E;fillColor=#DD344C;strokeColor=#ffffff;dashed=0;verticalLabelPosition=bottom;verticalAlign=top;align=center;html=1;fontSize=12;fontStyle=0;aspect=fixed;shape=mxgraph.aws4.resourceIcon;resIcon=mxgraph.aws4.cognito;" vertex="1" parent="MYE65sH3s9XC-EsRgawy-9">
          <mxGeometry x="56" y="663" width="78" height="78" as="geometry" />
        </mxCell>
        <mxCell id="E9s7Cj_5dPcn2JG_jbMc-2" value="CRUD Operations" style="sketch=0;points=[[0,0,0],[0.25,0,0],[0.5,0,0],[0.75,0,0],[1,0,0],[0,1,0],[0.25,1,0],[0.5,1,0],[0.75,1,0],[1,1,0],[0,0.25,0],[0,0.5,0],[0,0.75,0],[1,0.25,0],[1,0.5,0],[1,0.75,0]];outlineConnect=0;fontColor=#232F3E;fillColor=#ED7100;strokeColor=#ffffff;dashed=0;verticalLabelPosition=bottom;verticalAlign=top;align=center;html=1;fontSize=12;fontStyle=0;aspect=fixed;shape=mxgraph.aws4.resourceIcon;resIcon=mxgraph.aws4.lambda;" parent="1" vertex="1">
          <mxGeometry x="370" y="680" width="78" height="78" as="geometry" />
        </mxCell>
        <mxCell id="E9s7Cj_5dPcn2JG_jbMc-1" value="Amazon&lt;br&gt;Timestream" style="sketch=0;points=[[0,0,0],[0.25,0,0],[0.5,0,0],[0.75,0,0],[1,0,0],[0,1,0],[0.25,1,0],[0.5,1,0],[0.75,1,0],[1,1,0],[0,0.25,0],[0,0.5,0],[0,0.75,0],[1,0.25,0],[1,0.5,0],[1,0.75,0]];outlineConnect=0;fontColor=#232F3E;fillColor=#C925D1;strokeColor=#ffffff;dashed=0;verticalLabelPosition=bottom;verticalAlign=top;align=center;html=1;fontSize=12;fontStyle=0;aspect=fixed;shape=mxgraph.aws4.resourceIcon;resIcon=mxgraph.aws4.timestream;" parent="1" vertex="1">
          <mxGeometry x="500" y="680" width="78" height="78" as="geometry" />
        </mxCell>
        <mxCell id="E9s7Cj_5dPcn2JG_jbMc-4" value="Amazon &lt;br&gt;API Gateway" style="sketch=0;points=[[0,0,0],[0.25,0,0],[0.5,0,0],[0.75,0,0],[1,0,0],[0,1,0],[0.25,1,0],[0.5,1,0],[0.75,1,0],[1,1,0],[0,0.25,0],[0,0.5,0],[0,0.75,0],[1,0.25,0],[1,0.5,0],[1,0.75,0]];outlineConnect=0;fontColor=#232F3E;fillColor=#E7157B;strokeColor=#ffffff;dashed=0;verticalLabelPosition=bottom;verticalAlign=top;align=center;html=1;fontSize=12;fontStyle=0;aspect=fixed;shape=mxgraph.aws4.resourceIcon;resIcon=mxgraph.aws4.api_gateway;" parent="1" vertex="1">
          <mxGeometry x="230" y="680" width="78" height="78" as="geometry" />
        </mxCell>
        <mxCell id="E9s7Cj_5dPcn2JG_jbMc-5" style="edgeStyle=orthogonalEdgeStyle;rounded=0;orthogonalLoop=1;jettySize=auto;html=1;entryX=0;entryY=0.5;entryDx=0;entryDy=0;entryPerimeter=0;" parent="1" source="E9s7Cj_5dPcn2JG_jbMc-4" target="E9s7Cj_5dPcn2JG_jbMc-2" edge="1">
          <mxGeometry relative="1" as="geometry" />
        </mxCell>
        <mxCell id="E9s7Cj_5dPcn2JG_jbMc-6" style="edgeStyle=orthogonalEdgeStyle;rounded=0;orthogonalLoop=1;jettySize=auto;html=1;entryX=0.5;entryY=0;entryDx=0;entryDy=0;entryPerimeter=0;" parent="1" target="E9s7Cj_5dPcn2JG_jbMc-3" edge="1">
          <mxGeometry relative="1" as="geometry">
            <mxPoint x="409" y="790" as="sourcePoint" />
          </mxGeometry>
        </mxCell>
        <mxCell id="E9s7Cj_5dPcn2JG_jbMc-7" style="edgeStyle=orthogonalEdgeStyle;rounded=0;orthogonalLoop=1;jettySize=auto;html=1;entryX=0;entryY=0.5;entryDx=0;entryDy=0;entryPerimeter=0;" parent="1" source="E9s7Cj_5dPcn2JG_jbMc-2" target="E9s7Cj_5dPcn2JG_jbMc-1" edge="1">
          <mxGeometry relative="1" as="geometry" />
        </mxCell>
        <mxCell id="E9s7Cj_5dPcn2JG_jbMc-13" style="edgeStyle=orthogonalEdgeStyle;rounded=0;orthogonalLoop=1;jettySize=auto;html=1;" parent="1" source="E9s7Cj_5dPcn2JG_jbMc-11" target="E9s7Cj_5dPcn2JG_jbMc-12" edge="1">
          <mxGeometry relative="1" as="geometry" />
        </mxCell>
        <mxCell id="E9s7Cj_5dPcn2JG_jbMc-11" value="Amazon S3" style="sketch=0;points=[[0,0,0],[0.25,0,0],[0.5,0,0],[0.75,0,0],[1,0,0],[0,1,0],[0.25,1,0],[0.5,1,0],[0.75,1,0],[1,1,0],[0,0.25,0],[0,0.5,0],[0,0.75,0],[1,0.25,0],[1,0.5,0],[1,0.75,0]];outlineConnect=0;fontColor=#232F3E;fillColor=#7AA116;strokeColor=#ffffff;dashed=0;verticalLabelPosition=bottom;verticalAlign=top;align=center;html=1;fontSize=12;fontStyle=0;aspect=fixed;shape=mxgraph.aws4.resourceIcon;resIcon=mxgraph.aws4.s3;" parent="1" vertex="1">
          <mxGeometry x="380" y="1170" width="78" height="78" as="geometry" />
        </mxCell>
        <mxCell id="E9s7Cj_5dPcn2JG_jbMc-38" style="edgeStyle=orthogonalEdgeStyle;rounded=0;orthogonalLoop=1;jettySize=auto;html=1;" parent="1" source="E9s7Cj_5dPcn2JG_jbMc-12" edge="1">
          <mxGeometry relative="1" as="geometry">
            <mxPoint x="270" y="800" as="targetPoint" />
          </mxGeometry>
        </mxCell>
        <mxCell id="WIWH8btti3kdOPlmvlpw-2" style="edgeStyle=orthogonalEdgeStyle;rounded=0;orthogonalLoop=1;jettySize=auto;html=1;" edge="1" parent="1" target="WIWH8btti3kdOPlmvlpw-1">
          <mxGeometry relative="1" as="geometry">
            <mxPoint x="269" y="1277" as="sourcePoint" />
          </mxGeometry>
        </mxCell>
        <mxCell id="E9s7Cj_5dPcn2JG_jbMc-12" value="Amazon CloudFront" style="sketch=0;points=[[0,0,0],[0.25,0,0],[0.5,0,0],[0.75,0,0],[1,0,0],[0,1,0],[0.25,1,0],[0.5,1,0],[0.75,1,0],[1,1,0],[0,0.25,0],[0,0.5,0],[0,0.75,0],[1,0.25,0],[1,0.5,0],[1,0.75,0]];outlineConnect=0;fontColor=#232F3E;fillColor=#8C4FFF;strokeColor=#ffffff;dashed=0;verticalLabelPosition=bottom;verticalAlign=top;align=center;html=1;fontSize=12;fontStyle=0;aspect=fixed;shape=mxgraph.aws4.resourceIcon;resIcon=mxgraph.aws4.cloudfront;" parent="1" vertex="1">
          <mxGeometry x="230" y="1170" width="78" height="78" as="geometry" />
        </mxCell>
        <mxCell id="E9s7Cj_5dPcn2JG_jbMc-14" value="AWS Step Functions workflow" style="points=[[0,0],[0.25,0],[0.5,0],[0.75,0],[1,0],[1,0.25],[1,0.5],[1,0.75],[1,1],[0.75,1],[0.5,1],[0.25,1],[0,1],[0,0.75],[0,0.5],[0,0.25]];outlineConnect=0;gradientColor=none;html=1;whiteSpace=wrap;fontSize=12;fontStyle=0;container=1;pointerEvents=0;collapsible=0;recursiveResize=0;shape=mxgraph.aws4.group;grIcon=mxgraph.aws4.group_aws_step_functions_workflow;strokeColor=#CD2264;fillColor=none;verticalAlign=top;align=left;spacingLeft=30;fontColor=#CD2264;dashed=0;" parent="1" vertex="1">
          <mxGeometry x="610" y="680" width="260" height="411" as="geometry" />
        </mxCell>
        <mxCell id="E9s7Cj_5dPcn2JG_jbMc-10" value="Amazon &lt;br&gt;Rekognition" style="sketch=0;points=[[0,0,0],[0.25,0,0],[0.5,0,0],[0.75,0,0],[1,0,0],[0,1,0],[0.25,1,0],[0.5,1,0],[0.75,1,0],[1,1,0],[0,0.25,0],[0,0.5,0],[0,0.75,0],[1,0.25,0],[1,0.5,0],[1,0.75,0]];outlineConnect=0;fontColor=#232F3E;fillColor=#01A88D;strokeColor=#ffffff;dashed=0;verticalLabelPosition=bottom;verticalAlign=top;align=center;html=1;fontSize=12;fontStyle=0;aspect=fixed;shape=mxgraph.aws4.resourceIcon;resIcon=mxgraph.aws4.rekognition_2;" parent="E9s7Cj_5dPcn2JG_jbMc-14" vertex="1">
          <mxGeometry x="40" y="291" width="78" height="78" as="geometry" />
        </mxCell>
        <mxCell id="E9s7Cj_5dPcn2JG_jbMc-31" style="edgeStyle=orthogonalEdgeStyle;rounded=0;orthogonalLoop=1;jettySize=auto;html=1;" parent="E9s7Cj_5dPcn2JG_jbMc-14" source="E9s7Cj_5dPcn2JG_jbMc-26" target="E9s7Cj_5dPcn2JG_jbMc-30" edge="1">
          <mxGeometry relative="1" as="geometry" />
        </mxCell>
        <mxCell id="E9s7Cj_5dPcn2JG_jbMc-26" value="Custom Model&lt;br&gt;Object Detection" style="outlineConnect=0;dashed=0;verticalLabelPosition=bottom;verticalAlign=top;align=center;html=1;shape=mxgraph.aws3.lambda_function;fillColor=#F58534;gradientColor=none;" parent="E9s7Cj_5dPcn2JG_jbMc-14" vertex="1">
          <mxGeometry x="44.5" y="159" width="69" height="72" as="geometry" />
        </mxCell>
        <mxCell id="E9s7Cj_5dPcn2JG_jbMc-27" style="edgeStyle=orthogonalEdgeStyle;rounded=0;orthogonalLoop=1;jettySize=auto;html=1;entryX=0.5;entryY=0;entryDx=0;entryDy=0;entryPerimeter=0;" parent="E9s7Cj_5dPcn2JG_jbMc-14" target="E9s7Cj_5dPcn2JG_jbMc-10" edge="1">
          <mxGeometry relative="1" as="geometry">
            <mxPoint x="79" y="271" as="sourcePoint" />
          </mxGeometry>
        </mxCell>
        <mxCell id="E9s7Cj_5dPcn2JG_jbMc-30" value="Record to&lt;br&gt;Timestream DB" style="outlineConnect=0;dashed=0;verticalLabelPosition=bottom;verticalAlign=top;align=center;html=1;shape=mxgraph.aws3.lambda_function;fillColor=#F58534;gradientColor=none;" parent="E9s7Cj_5dPcn2JG_jbMc-14" vertex="1">
          <mxGeometry x="170" y="159" width="69" height="72" as="geometry" />
        </mxCell>
        <mxCell id="E9s7Cj_5dPcn2JG_jbMc-54" style="edgeStyle=orthogonalEdgeStyle;rounded=0;orthogonalLoop=1;jettySize=auto;html=1;" parent="1" source="E9s7Cj_5dPcn2JG_jbMc-22" target="E9s7Cj_5dPcn2JG_jbMc-26" edge="1">
          <mxGeometry relative="1" as="geometry" />
        </mxCell>
        <mxCell id="E9s7Cj_5dPcn2JG_jbMc-32" style="edgeStyle=orthogonalEdgeStyle;rounded=0;orthogonalLoop=1;jettySize=auto;html=1;" parent="1" source="E9s7Cj_5dPcn2JG_jbMc-30" edge="1">
          <mxGeometry relative="1" as="geometry">
            <mxPoint x="539" y="790" as="targetPoint" />
            <Array as="points">
              <mxPoint x="805" y="810" />
              <mxPoint x="539" y="810" />
            </Array>
          </mxGeometry>
        </mxCell>
        <mxCell id="E9s7Cj_5dPcn2JG_jbMc-34" style="edgeStyle=orthogonalEdgeStyle;rounded=0;orthogonalLoop=1;jettySize=auto;html=1;entryX=0;entryY=0.5;entryDx=0;entryDy=0;entryPerimeter=0;" parent="1" target="E9s7Cj_5dPcn2JG_jbMc-10" edge="1">
          <mxGeometry relative="1" as="geometry">
            <Array as="points">
              <mxPoint x="409" y="1010" />
            </Array>
            <mxPoint x="409" y="938" as="sourcePoint" />
          </mxGeometry>
        </mxCell>
        <mxCell id="E9s7Cj_5dPcn2JG_jbMc-35" value="&lt;b&gt;Custom&lt;br&gt;Model&lt;span style=&quot;white-space: pre;&quot;&gt;&#x9;&lt;/span&gt;&lt;span style=&quot;white-space: pre;&quot;&gt;&#x9;&lt;/span&gt;&lt;br&gt;&lt;/b&gt;" style="edgeLabel;html=1;align=center;verticalAlign=middle;resizable=0;points=[];" parent="E9s7Cj_5dPcn2JG_jbMc-34" vertex="1" connectable="0">
          <mxGeometry x="-0.023" y="-1" relative="1" as="geometry">
            <mxPoint x="1" as="offset" />
          </mxGeometry>
        </mxCell>
        <mxCell id="E9s7Cj_5dPcn2JG_jbMc-40" style="edgeStyle=orthogonalEdgeStyle;rounded=0;orthogonalLoop=1;jettySize=auto;html=1;" parent="1" source="E9s7Cj_5dPcn2JG_jbMc-39" target="E9s7Cj_5dPcn2JG_jbMc-11" edge="1">
          <mxGeometry relative="1" as="geometry" />
        </mxCell>
        <mxCell id="E9s7Cj_5dPcn2JG_jbMc-45" style="edgeStyle=orthogonalEdgeStyle;rounded=0;orthogonalLoop=1;jettySize=auto;html=1;" parent="1" target="E9s7Cj_5dPcn2JG_jbMc-12" edge="1">
          <mxGeometry relative="1" as="geometry">
            <mxPoint x="120" y="1209" as="sourcePoint" />
          </mxGeometry>
        </mxCell>
        <mxCell id="E9s7Cj_5dPcn2JG_jbMc-50" value="User" style="shape=umlActor;verticalLabelPosition=bottom;verticalAlign=top;html=1;outlineConnect=0;" parent="1" vertex="1">
          <mxGeometry x="80" y="1178" width="30" height="60" as="geometry" />
        </mxCell>
      </root>
    </mxGraphModel>
  </diagram>
  <diagram id="onMG0yWzJpOo7cpvIN44" name="Reviewing-AWS Concepts">
    <mxGraphModel dx="2934" dy="1121" grid="1" gridSize="10" guides="1" tooltips="1" connect="1" arrows="1" fold="1" page="1" pageScale="1" pageWidth="850" pageHeight="1100" math="0" shadow="0">
      <root>
        <mxCell id="0" />
        <mxCell id="1" parent="0" />
        <mxCell id="Nw94OMGiKXlHq63f8jNe-8" value="Region" style="points=[[0,0],[0.25,0],[0.5,0],[0.75,0],[1,0],[1,0.25],[1,0.5],[1,0.75],[1,1],[0.75,1],[0.5,1],[0.25,1],[0,1],[0,0.75],[0,0.5],[0,0.25]];outlineConnect=0;gradientColor=none;html=1;whiteSpace=wrap;fontSize=12;fontStyle=0;container=1;pointerEvents=0;collapsible=0;recursiveResize=0;shape=mxgraph.aws4.group;grIcon=mxgraph.aws4.group_region;strokeColor=#147EBA;fillColor=none;verticalAlign=top;align=left;spacingLeft=30;fontColor=#147EBA;dashed=1;" vertex="1" parent="1">
          <mxGeometry x="40" y="120" width="770" height="840" as="geometry" />
        </mxCell>
        <mxCell id="Nw94OMGiKXlHq63f8jNe-10" value="VPC" style="sketch=0;outlineConnect=0;gradientColor=none;html=1;whiteSpace=wrap;fontSize=12;fontStyle=0;shape=mxgraph.aws4.group;grIcon=mxgraph.aws4.group_vpc;strokeColor=#879196;fillColor=none;verticalAlign=top;align=left;spacingLeft=30;fontColor=#879196;dashed=0;" vertex="1" parent="Nw94OMGiKXlHq63f8jNe-8">
          <mxGeometry x="20" y="30" width="690" height="600" as="geometry" />
        </mxCell>
        <mxCell id="Nw94OMGiKXlHq63f8jNe-16" value="Availability zone" style="sketch=0;outlineConnect=0;gradientColor=none;html=1;whiteSpace=wrap;fontSize=12;fontStyle=0;shape=mxgraph.aws4.group;grIcon=mxgraph.aws4.group_availability_zone;strokeColor=#545B64;fillColor=none;verticalAlign=top;align=left;spacingLeft=30;fontColor=#545B64;dashed=1;" vertex="1" parent="Nw94OMGiKXlHq63f8jNe-8">
          <mxGeometry x="50" y="60" width="250" height="510" as="geometry" />
        </mxCell>
        <mxCell id="Nw94OMGiKXlHq63f8jNe-12" value="Subnet" style="sketch=0;outlineConnect=0;gradientColor=none;html=1;whiteSpace=wrap;fontSize=12;fontStyle=0;shape=mxgraph.aws4.group;grIcon=mxgraph.aws4.group_subnet;strokeColor=#879196;fillColor=none;verticalAlign=top;align=left;spacingLeft=30;fontColor=#879196;dashed=0;" vertex="1" parent="Nw94OMGiKXlHq63f8jNe-8">
          <mxGeometry x="60" y="340" width="220" height="230" as="geometry" />
        </mxCell>
        <mxCell id="Nw94OMGiKXlHq63f8jNe-9" value="Availability zone" style="sketch=0;outlineConnect=0;gradientColor=none;html=1;whiteSpace=wrap;fontSize=12;fontStyle=0;shape=mxgraph.aws4.group;grIcon=mxgraph.aws4.group_availability_zone;strokeColor=#545B64;fillColor=none;verticalAlign=top;align=left;spacingLeft=30;fontColor=#545B64;dashed=1;" vertex="1" parent="Nw94OMGiKXlHq63f8jNe-8">
          <mxGeometry x="430" y="60" width="260" height="510" as="geometry" />
        </mxCell>
        <mxCell id="Nw94OMGiKXlHq63f8jNe-11" value="Subnet" style="sketch=0;outlineConnect=0;gradientColor=none;html=1;whiteSpace=wrap;fontSize=12;fontStyle=0;shape=mxgraph.aws4.group;grIcon=mxgraph.aws4.group_subnet;strokeColor=#879196;fillColor=none;verticalAlign=top;align=left;spacingLeft=30;fontColor=#879196;dashed=0;" vertex="1" parent="Nw94OMGiKXlHq63f8jNe-8">
          <mxGeometry x="70" y="100" width="200" height="170" as="geometry" />
        </mxCell>
        <mxCell id="Nw94OMGiKXlHq63f8jNe-17" value="Subnet" style="sketch=0;outlineConnect=0;gradientColor=none;html=1;whiteSpace=wrap;fontSize=12;fontStyle=0;shape=mxgraph.aws4.group;grIcon=mxgraph.aws4.group_subnet;strokeColor=#879196;fillColor=none;verticalAlign=top;align=left;spacingLeft=30;fontColor=#879196;dashed=0;" vertex="1" parent="Nw94OMGiKXlHq63f8jNe-8">
          <mxGeometry x="450" y="100" width="200" height="210" as="geometry" />
        </mxCell>
        <mxCell id="Nw94OMGiKXlHq63f8jNe-18" value="Subnet" style="sketch=0;outlineConnect=0;gradientColor=none;html=1;whiteSpace=wrap;fontSize=12;fontStyle=0;shape=mxgraph.aws4.group;grIcon=mxgraph.aws4.group_subnet;strokeColor=#879196;fillColor=none;verticalAlign=top;align=left;spacingLeft=30;fontColor=#879196;dashed=0;" vertex="1" parent="Nw94OMGiKXlHq63f8jNe-8">
          <mxGeometry x="450" y="360" width="200" height="180" as="geometry" />
        </mxCell>
        <mxCell id="Nw94OMGiKXlHq63f8jNe-7" value="Security group" style="fillColor=none;strokeColor=#DD3522;verticalAlign=top;fontStyle=0;fontColor=#DD3522;whiteSpace=wrap;html=1;" vertex="1" parent="Nw94OMGiKXlHq63f8jNe-8">
          <mxGeometry x="80" y="140" width="100" height="120" as="geometry" />
        </mxCell>
        <mxCell id="Nw94OMGiKXlHq63f8jNe-1" value="Amazon EC2" style="sketch=0;outlineConnect=0;fontColor=#232F3E;gradientColor=none;strokeColor=#ffffff;fillColor=#232F3E;dashed=0;verticalLabelPosition=middle;verticalAlign=bottom;align=center;html=1;whiteSpace=wrap;fontSize=10;fontStyle=1;spacing=3;shape=mxgraph.aws4.productIcon;prIcon=mxgraph.aws4.ec2;" vertex="1" parent="Nw94OMGiKXlHq63f8jNe-8">
          <mxGeometry x="105" y="170" width="50" height="80" as="geometry" />
        </mxCell>
        <mxCell id="Nw94OMGiKXlHq63f8jNe-21" value="Security group" style="fillColor=none;strokeColor=#DD3522;verticalAlign=top;fontStyle=0;fontColor=#DD3522;whiteSpace=wrap;html=1;" vertex="1" parent="Nw94OMGiKXlHq63f8jNe-8">
          <mxGeometry x="170" y="140" width="100" height="120" as="geometry" />
        </mxCell>
        <mxCell id="Nw94OMGiKXlHq63f8jNe-22" value="Amazon EC2" style="sketch=0;outlineConnect=0;fontColor=#232F3E;gradientColor=none;strokeColor=#ffffff;fillColor=#232F3E;dashed=0;verticalLabelPosition=middle;verticalAlign=bottom;align=center;html=1;whiteSpace=wrap;fontSize=10;fontStyle=1;spacing=3;shape=mxgraph.aws4.productIcon;prIcon=mxgraph.aws4.ec2;" vertex="1" parent="Nw94OMGiKXlHq63f8jNe-8">
          <mxGeometry x="195" y="170" width="50" height="80" as="geometry" />
        </mxCell>
        <mxCell id="Nw94OMGiKXlHq63f8jNe-23" value="Security group" style="fillColor=none;strokeColor=#DD3522;verticalAlign=top;fontStyle=0;fontColor=#DD3522;whiteSpace=wrap;html=1;" vertex="1" parent="Nw94OMGiKXlHq63f8jNe-8">
          <mxGeometry x="460" y="130" width="100" height="120" as="geometry" />
        </mxCell>
        <mxCell id="Nw94OMGiKXlHq63f8jNe-24" value="Amazon EC2" style="sketch=0;outlineConnect=0;fontColor=#232F3E;gradientColor=none;strokeColor=#ffffff;fillColor=#232F3E;dashed=0;verticalLabelPosition=middle;verticalAlign=bottom;align=center;html=1;whiteSpace=wrap;fontSize=10;fontStyle=1;spacing=3;shape=mxgraph.aws4.productIcon;prIcon=mxgraph.aws4.ec2;" vertex="1" parent="Nw94OMGiKXlHq63f8jNe-8">
          <mxGeometry x="485" y="160" width="50" height="80" as="geometry" />
        </mxCell>
        <mxCell id="Nw94OMGiKXlHq63f8jNe-25" value="Security group" style="fillColor=none;strokeColor=#DD3522;verticalAlign=top;fontStyle=0;fontColor=#DD3522;whiteSpace=wrap;html=1;" vertex="1" parent="Nw94OMGiKXlHq63f8jNe-8">
          <mxGeometry x="540" y="160" width="100" height="120" as="geometry" />
        </mxCell>
        <mxCell id="Nw94OMGiKXlHq63f8jNe-26" value="Amazon EC2" style="sketch=0;outlineConnect=0;fontColor=#232F3E;gradientColor=none;strokeColor=#ffffff;fillColor=#232F3E;dashed=0;verticalLabelPosition=middle;verticalAlign=bottom;align=center;html=1;whiteSpace=wrap;fontSize=10;fontStyle=1;spacing=3;shape=mxgraph.aws4.productIcon;prIcon=mxgraph.aws4.ec2;" vertex="1" parent="Nw94OMGiKXlHq63f8jNe-8">
          <mxGeometry x="565" y="190" width="50" height="80" as="geometry" />
        </mxCell>
        <mxCell id="Nw94OMGiKXlHq63f8jNe-27" value="Security group" style="fillColor=none;strokeColor=#DD3522;verticalAlign=top;fontStyle=0;fontColor=#DD3522;whiteSpace=wrap;html=1;" vertex="1" parent="Nw94OMGiKXlHq63f8jNe-8">
          <mxGeometry x="460" y="390" width="100" height="120" as="geometry" />
        </mxCell>
        <mxCell id="Nw94OMGiKXlHq63f8jNe-28" value="Amazon EC2" style="sketch=0;outlineConnect=0;fontColor=#232F3E;gradientColor=none;strokeColor=#ffffff;fillColor=#232F3E;dashed=0;verticalLabelPosition=middle;verticalAlign=bottom;align=center;html=1;whiteSpace=wrap;fontSize=10;fontStyle=1;spacing=3;shape=mxgraph.aws4.productIcon;prIcon=mxgraph.aws4.ec2;" vertex="1" parent="Nw94OMGiKXlHq63f8jNe-8">
          <mxGeometry x="485" y="420" width="50" height="80" as="geometry" />
        </mxCell>
        <mxCell id="Nw94OMGiKXlHq63f8jNe-29" value="Security group" style="fillColor=none;strokeColor=#DD3522;verticalAlign=top;fontStyle=0;fontColor=#DD3522;whiteSpace=wrap;html=1;" vertex="1" parent="Nw94OMGiKXlHq63f8jNe-8">
          <mxGeometry x="540" y="420" width="100" height="120" as="geometry" />
        </mxCell>
        <mxCell id="Nw94OMGiKXlHq63f8jNe-30" value="Amazon EC2" style="sketch=0;outlineConnect=0;fontColor=#232F3E;gradientColor=none;strokeColor=#ffffff;fillColor=#232F3E;dashed=0;verticalLabelPosition=middle;verticalAlign=bottom;align=center;html=1;whiteSpace=wrap;fontSize=10;fontStyle=1;spacing=3;shape=mxgraph.aws4.productIcon;prIcon=mxgraph.aws4.ec2;" vertex="1" parent="Nw94OMGiKXlHq63f8jNe-8">
          <mxGeometry x="565" y="450" width="50" height="80" as="geometry" />
        </mxCell>
        <mxCell id="Nw94OMGiKXlHq63f8jNe-31" value="Security group" style="fillColor=none;strokeColor=#DD3522;verticalAlign=top;fontStyle=0;fontColor=#DD3522;whiteSpace=wrap;html=1;" vertex="1" parent="Nw94OMGiKXlHq63f8jNe-8">
          <mxGeometry x="80" y="390" width="100" height="120" as="geometry" />
        </mxCell>
        <mxCell id="Nw94OMGiKXlHq63f8jNe-32" value="Amazon EC2" style="sketch=0;outlineConnect=0;fontColor=#232F3E;gradientColor=none;strokeColor=#ffffff;fillColor=#232F3E;dashed=0;verticalLabelPosition=middle;verticalAlign=bottom;align=center;html=1;whiteSpace=wrap;fontSize=10;fontStyle=1;spacing=3;shape=mxgraph.aws4.productIcon;prIcon=mxgraph.aws4.ec2;" vertex="1" parent="Nw94OMGiKXlHq63f8jNe-8">
          <mxGeometry x="105" y="420" width="50" height="80" as="geometry" />
        </mxCell>
        <mxCell id="Nw94OMGiKXlHq63f8jNe-33" value="Security group" style="fillColor=none;strokeColor=#DD3522;verticalAlign=top;fontStyle=0;fontColor=#DD3522;whiteSpace=wrap;html=1;" vertex="1" parent="Nw94OMGiKXlHq63f8jNe-8">
          <mxGeometry x="160" y="440" width="100" height="120" as="geometry" />
        </mxCell>
        <mxCell id="Nw94OMGiKXlHq63f8jNe-34" value="Amazon EC2" style="sketch=0;outlineConnect=0;fontColor=#232F3E;gradientColor=none;strokeColor=#ffffff;fillColor=#232F3E;dashed=0;verticalLabelPosition=middle;verticalAlign=bottom;align=center;html=1;whiteSpace=wrap;fontSize=10;fontStyle=1;spacing=3;shape=mxgraph.aws4.productIcon;prIcon=mxgraph.aws4.ec2;" vertex="1" parent="Nw94OMGiKXlHq63f8jNe-8">
          <mxGeometry x="185" y="470" width="50" height="80" as="geometry" />
        </mxCell>
        <mxCell id="Nw94OMGiKXlHq63f8jNe-13" value="" style="sketch=0;outlineConnect=0;fontColor=#232F3E;gradientColor=none;fillColor=#4D27AA;strokeColor=none;dashed=0;verticalLabelPosition=bottom;verticalAlign=top;align=center;html=1;fontSize=12;fontStyle=0;aspect=fixed;pointerEvents=1;shape=mxgraph.aws4.network_access_control_list;" vertex="1" parent="Nw94OMGiKXlHq63f8jNe-8">
          <mxGeometry x="245" y="80" width="40" height="40" as="geometry" />
        </mxCell>
        <mxCell id="Nw94OMGiKXlHq63f8jNe-14" value="" style="sketch=0;outlineConnect=0;fontColor=#232F3E;gradientColor=none;fillColor=#4D27AA;strokeColor=none;dashed=0;verticalLabelPosition=bottom;verticalAlign=top;align=center;html=1;fontSize=12;fontStyle=0;aspect=fixed;pointerEvents=1;shape=mxgraph.aws4.network_access_control_list;" vertex="1" parent="Nw94OMGiKXlHq63f8jNe-8">
          <mxGeometry x="630" y="80" width="40" height="40" as="geometry" />
        </mxCell>
        <mxCell id="Nw94OMGiKXlHq63f8jNe-35" value="" style="sketch=0;outlineConnect=0;fontColor=#232F3E;gradientColor=none;fillColor=#4D27AA;strokeColor=none;dashed=0;verticalLabelPosition=bottom;verticalAlign=top;align=center;html=1;fontSize=12;fontStyle=0;aspect=fixed;pointerEvents=1;shape=mxgraph.aws4.network_access_control_list;" vertex="1" parent="Nw94OMGiKXlHq63f8jNe-8">
          <mxGeometry x="630" y="340" width="40" height="40" as="geometry" />
        </mxCell>
        <mxCell id="Nw94OMGiKXlHq63f8jNe-36" value="" style="sketch=0;outlineConnect=0;fontColor=#232F3E;gradientColor=none;fillColor=#4D27AA;strokeColor=none;dashed=0;verticalLabelPosition=bottom;verticalAlign=top;align=center;html=1;fontSize=12;fontStyle=0;aspect=fixed;pointerEvents=1;shape=mxgraph.aws4.network_access_control_list;" vertex="1" parent="Nw94OMGiKXlHq63f8jNe-8">
          <mxGeometry x="245" y="330" width="40" height="40" as="geometry" />
        </mxCell>
        <mxCell id="Nw94OMGiKXlHq63f8jNe-37" value="Internet&#xa;gateway" style="sketch=0;outlineConnect=0;fontColor=#232F3E;gradientColor=none;strokeColor=#232F3E;fillColor=#ffffff;dashed=0;verticalLabelPosition=bottom;verticalAlign=top;align=center;html=1;fontSize=12;fontStyle=0;aspect=fixed;shape=mxgraph.aws4.resourceIcon;resIcon=mxgraph.aws4.internet_gateway;" vertex="1" parent="Nw94OMGiKXlHq63f8jNe-8">
          <mxGeometry x="340" width="60" height="60" as="geometry" />
        </mxCell>
        <mxCell id="Nw94OMGiKXlHq63f8jNe-45" value="Elastic Load Balancing" style="sketch=0;outlineConnect=0;fontColor=#232F3E;gradientColor=none;strokeColor=#ffffff;fillColor=#232F3E;dashed=0;verticalLabelPosition=middle;verticalAlign=bottom;align=center;html=1;whiteSpace=wrap;fontSize=10;fontStyle=1;spacing=3;shape=mxgraph.aws4.productIcon;prIcon=mxgraph.aws4.elastic_load_balancing;" vertex="1" parent="Nw94OMGiKXlHq63f8jNe-8">
          <mxGeometry x="225" y="770" width="80" height="110" as="geometry" />
        </mxCell>
        <mxCell id="Nw94OMGiKXlHq63f8jNe-44" value="Application Load Balancer" style="sketch=0;outlineConnect=0;fontColor=#232F3E;gradientColor=none;strokeColor=#ffffff;fillColor=#232F3E;dashed=0;verticalLabelPosition=middle;verticalAlign=bottom;align=center;html=1;whiteSpace=wrap;fontSize=10;fontStyle=1;spacing=3;shape=mxgraph.aws4.productIcon;prIcon=mxgraph.aws4.application_load_balancer;" vertex="1" parent="Nw94OMGiKXlHq63f8jNe-8">
          <mxGeometry x="285" y="670" width="80" height="110" as="geometry" />
        </mxCell>
        <mxCell id="Nw94OMGiKXlHq63f8jNe-43" value="Network Load Balancer" style="sketch=0;outlineConnect=0;fontColor=#232F3E;gradientColor=none;strokeColor=#ffffff;fillColor=#232F3E;dashed=0;verticalLabelPosition=middle;verticalAlign=bottom;align=center;html=1;whiteSpace=wrap;fontSize=10;fontStyle=1;spacing=3;shape=mxgraph.aws4.productIcon;prIcon=mxgraph.aws4.network_load_balancer;" vertex="1" parent="Nw94OMGiKXlHq63f8jNe-8">
          <mxGeometry x="385" y="670" width="80" height="110" as="geometry" />
        </mxCell>
        <mxCell id="Nw94OMGiKXlHq63f8jNe-47" style="edgeStyle=orthogonalEdgeStyle;rounded=0;orthogonalLoop=1;jettySize=auto;html=1;" edge="1" parent="Nw94OMGiKXlHq63f8jNe-8" source="Nw94OMGiKXlHq63f8jNe-46" target="Nw94OMGiKXlHq63f8jNe-16">
          <mxGeometry relative="1" as="geometry" />
        </mxCell>
        <mxCell id="Nw94OMGiKXlHq63f8jNe-46" value="" style="rounded=1;arcSize=10;dashed=1;strokeColor=#F59D56;fillColor=none;gradientColor=none;dashPattern=8 4;strokeWidth=2;" vertex="1" parent="Nw94OMGiKXlHq63f8jNe-8">
          <mxGeometry x="270.25" y="650" width="199.5" height="160" as="geometry" />
        </mxCell>
        <mxCell id="Nw94OMGiKXlHq63f8jNe-48" value="Auto Scaling group" style="points=[[0,0],[0.25,0],[0.5,0],[0.75,0],[1,0],[1,0.25],[1,0.5],[1,0.75],[1,1],[0.75,1],[0.5,1],[0.25,1],[0,1],[0,0.75],[0,0.5],[0,0.25]];outlineConnect=0;gradientColor=none;html=1;whiteSpace=wrap;fontSize=12;fontStyle=0;container=1;pointerEvents=0;collapsible=0;recursiveResize=0;shape=mxgraph.aws4.groupCenter;grIcon=mxgraph.aws4.group_auto_scaling_group;grStroke=1;strokeColor=#D86613;fillColor=none;verticalAlign=top;align=center;fontColor=#D86613;dashed=1;spacingTop=25;" vertex="1" parent="Nw94OMGiKXlHq63f8jNe-8">
          <mxGeometry x="80" y="340" width="190" height="230" as="geometry" />
        </mxCell>
        <mxCell id="Nw94OMGiKXlHq63f8jNe-49" value="ALB = Layer 7 -- HTTP / HTTPS communication&lt;br&gt;NLB = Layer 4 - TCP/UDP" style="whiteSpace=wrap;html=1;" vertex="1" parent="Nw94OMGiKXlHq63f8jNe-8">
          <mxGeometry x="350" y="780" width="170" height="50" as="geometry" />
        </mxCell>
        <mxCell id="Nw94OMGiKXlHq63f8jNe-50" value="AWS PrivateLink" style="sketch=0;outlineConnect=0;fontColor=#232F3E;gradientColor=none;strokeColor=#ffffff;fillColor=#232F3E;dashed=0;verticalLabelPosition=middle;verticalAlign=bottom;align=center;html=1;whiteSpace=wrap;fontSize=10;fontStyle=1;spacing=3;shape=mxgraph.aws4.productIcon;prIcon=mxgraph.aws4.privatelink;" vertex="1" parent="Nw94OMGiKXlHq63f8jNe-8">
          <mxGeometry x="485" y="590" width="80" height="110" as="geometry" />
        </mxCell>
        <mxCell id="Nw94OMGiKXlHq63f8jNe-51" value="Provides private connectivity between services" style="whiteSpace=wrap;html=1;" vertex="1" parent="Nw94OMGiKXlHq63f8jNe-8">
          <mxGeometry x="570" y="600" width="170" height="50" as="geometry" />
        </mxCell>
        <mxCell id="Nw94OMGiKXlHq63f8jNe-2" value="Amazon ECS" style="sketch=0;outlineConnect=0;fontColor=#232F3E;gradientColor=none;strokeColor=#ffffff;fillColor=#232F3E;dashed=0;verticalLabelPosition=middle;verticalAlign=bottom;align=center;html=1;whiteSpace=wrap;fontSize=10;fontStyle=1;spacing=3;shape=mxgraph.aws4.productIcon;prIcon=mxgraph.aws4.ecs;" vertex="1" parent="1">
          <mxGeometry x="-310" y="410" width="80" height="100" as="geometry" />
        </mxCell>
        <mxCell id="Nw94OMGiKXlHq63f8jNe-3" value="Amazon EKS" style="sketch=0;outlineConnect=0;fontColor=#232F3E;gradientColor=none;strokeColor=#ffffff;fillColor=#232F3E;dashed=0;verticalLabelPosition=middle;verticalAlign=bottom;align=center;html=1;whiteSpace=wrap;fontSize=10;fontStyle=1;spacing=3;shape=mxgraph.aws4.productIcon;prIcon=mxgraph.aws4.eks;" vertex="1" parent="1">
          <mxGeometry x="-210" y="410" width="80" height="100" as="geometry" />
        </mxCell>
        <mxCell id="Nw94OMGiKXlHq63f8jNe-4" value="AWS Lambda" style="sketch=0;outlineConnect=0;fontColor=#232F3E;gradientColor=none;strokeColor=#ffffff;fillColor=#232F3E;dashed=0;verticalLabelPosition=middle;verticalAlign=bottom;align=center;html=1;whiteSpace=wrap;fontSize=10;fontStyle=1;spacing=3;shape=mxgraph.aws4.productIcon;prIcon=mxgraph.aws4.lambda;" vertex="1" parent="1">
          <mxGeometry x="-330" y="720" width="80" height="100" as="geometry" />
        </mxCell>
        <mxCell id="Nw94OMGiKXlHq63f8jNe-5" value="AWS CloudFormation" style="sketch=0;outlineConnect=0;fontColor=#232F3E;gradientColor=none;strokeColor=#ffffff;fillColor=#232F3E;dashed=0;verticalLabelPosition=middle;verticalAlign=bottom;align=center;html=1;whiteSpace=wrap;fontSize=10;fontStyle=1;spacing=3;shape=mxgraph.aws4.productIcon;prIcon=mxgraph.aws4.cloudformation;" vertex="1" parent="1">
          <mxGeometry x="-811.25" y="680" width="80" height="110" as="geometry" />
        </mxCell>
        <mxCell id="Nw94OMGiKXlHq63f8jNe-20" value="Region has 2+ AZs&lt;br&gt;AZs have 1+ data centers" style="whiteSpace=wrap;html=1;" vertex="1" parent="1">
          <mxGeometry x="750" y="90" width="120" height="50" as="geometry" />
        </mxCell>
        <mxCell id="Nw94OMGiKXlHq63f8jNe-40" value="Amazon RDS" style="sketch=0;outlineConnect=0;fontColor=#232F3E;gradientColor=none;strokeColor=#ffffff;fillColor=#232F3E;dashed=0;verticalLabelPosition=middle;verticalAlign=bottom;align=center;html=1;whiteSpace=wrap;fontSize=10;fontStyle=1;spacing=3;shape=mxgraph.aws4.productIcon;prIcon=mxgraph.aws4.rds;" vertex="1" parent="1">
          <mxGeometry x="-685.62" y="400" width="80" height="100" as="geometry" />
        </mxCell>
        <mxCell id="Nw94OMGiKXlHq63f8jNe-41" value="Amazon Route 53" style="sketch=0;outlineConnect=0;fontColor=#232F3E;gradientColor=none;strokeColor=#ffffff;fillColor=#232F3E;dashed=0;verticalLabelPosition=middle;verticalAlign=bottom;align=center;html=1;whiteSpace=wrap;fontSize=10;fontStyle=1;spacing=3;shape=mxgraph.aws4.productIcon;prIcon=mxgraph.aws4.route_53;" vertex="1" parent="1">
          <mxGeometry x="860" y="810" width="80" height="110" as="geometry" />
        </mxCell>
        <mxCell id="Nw94OMGiKXlHq63f8jNe-42" style="edgeStyle=orthogonalEdgeStyle;rounded=0;orthogonalLoop=1;jettySize=auto;html=1;" edge="1" parent="1" source="Nw94OMGiKXlHq63f8jNe-41" target="Nw94OMGiKXlHq63f8jNe-6">
          <mxGeometry relative="1" as="geometry" />
        </mxCell>
        <mxCell id="Nw94OMGiKXlHq63f8jNe-80" style="edgeStyle=orthogonalEdgeStyle;rounded=0;orthogonalLoop=1;jettySize=auto;html=1;" edge="1" parent="1" source="Nw94OMGiKXlHq63f8jNe-6" target="Nw94OMGiKXlHq63f8jNe-46">
          <mxGeometry relative="1" as="geometry">
            <Array as="points">
              <mxPoint x="800" y="715" />
              <mxPoint x="800" y="850" />
            </Array>
          </mxGeometry>
        </mxCell>
        <mxCell id="Nw94OMGiKXlHq63f8jNe-6" value="Amazon Cloudfront" style="sketch=0;outlineConnect=0;fontColor=#232F3E;gradientColor=none;strokeColor=#ffffff;fillColor=#232F3E;dashed=0;verticalLabelPosition=middle;verticalAlign=bottom;align=center;html=1;whiteSpace=wrap;fontSize=10;fontStyle=1;spacing=3;shape=mxgraph.aws4.productIcon;prIcon=mxgraph.aws4.cloudfront;" vertex="1" parent="1">
          <mxGeometry x="860" y="660" width="80" height="110" as="geometry" />
        </mxCell>
        <mxCell id="Nw94OMGiKXlHq63f8jNe-52" value="" style="sketch=0;points=[[0,0,0],[0.25,0,0],[0.5,0,0],[0.75,0,0],[1,0,0],[0,1,0],[0.25,1,0],[0.5,1,0],[0.75,1,0],[1,1,0],[0,0.25,0],[0,0.5,0],[0,0.75,0],[1,0.25,0],[1,0.5,0],[1,0.75,0]];outlineConnect=0;fontColor=#232F3E;gradientColor=#F54749;gradientDirection=north;fillColor=#C7131F;strokeColor=#ffffff;dashed=0;verticalLabelPosition=bottom;verticalAlign=top;align=center;html=1;fontSize=12;fontStyle=0;aspect=fixed;shape=mxgraph.aws4.resourceIcon;resIcon=mxgraph.aws4.amplify;" vertex="1" parent="1">
          <mxGeometry x="-818" y="120" width="78" height="78" as="geometry" />
        </mxCell>
        <mxCell id="Nw94OMGiKXlHq63f8jNe-53" value="AWS Elastic Beanstalk" style="sketch=0;outlineConnect=0;fontColor=#232F3E;gradientColor=none;strokeColor=#ffffff;fillColor=#232F3E;dashed=0;verticalLabelPosition=middle;verticalAlign=bottom;align=center;html=1;whiteSpace=wrap;fontSize=10;fontStyle=1;spacing=3;shape=mxgraph.aws4.productIcon;prIcon=mxgraph.aws4.elastic_beanstalk;" vertex="1" parent="1">
          <mxGeometry x="-720" y="120" width="80" height="110" as="geometry" />
        </mxCell>
        <mxCell id="Nw94OMGiKXlHq63f8jNe-54" value="Amazon DynamoDB" style="sketch=0;outlineConnect=0;fontColor=#232F3E;gradientColor=none;strokeColor=#ffffff;fillColor=#232F3E;dashed=0;verticalLabelPosition=middle;verticalAlign=bottom;align=center;html=1;whiteSpace=wrap;fontSize=10;fontStyle=1;spacing=3;shape=mxgraph.aws4.productIcon;prIcon=mxgraph.aws4.dynamodb;" vertex="1" parent="1">
          <mxGeometry x="-575.62" y="400" width="80" height="110" as="geometry" />
        </mxCell>
        <mxCell id="Nw94OMGiKXlHq63f8jNe-55" value="Amazon Redshift" style="sketch=0;outlineConnect=0;fontColor=#232F3E;gradientColor=none;strokeColor=#ffffff;fillColor=#232F3E;dashed=0;verticalLabelPosition=middle;verticalAlign=bottom;align=center;html=1;whiteSpace=wrap;fontSize=10;fontStyle=1;spacing=3;shape=mxgraph.aws4.productIcon;prIcon=mxgraph.aws4.redshift;" vertex="1" parent="1">
          <mxGeometry x="-455.62" y="400" width="80" height="110" as="geometry" />
        </mxCell>
        <mxCell id="Nw94OMGiKXlHq63f8jNe-56" value="DocumentDB&lt;br&gt;(use for MongoDB)" style="rounded=0;whiteSpace=wrap;html=1;" vertex="1" parent="1">
          <mxGeometry x="-895.62" y="410" width="70" height="60" as="geometry" />
        </mxCell>
        <mxCell id="Nw94OMGiKXlHq63f8jNe-58" value="Amazon Neptune" style="sketch=0;outlineConnect=0;fontColor=#232F3E;gradientColor=none;strokeColor=#ffffff;fillColor=#232F3E;dashed=0;verticalLabelPosition=middle;verticalAlign=bottom;align=center;html=1;whiteSpace=wrap;fontSize=10;fontStyle=1;spacing=3;shape=mxgraph.aws4.productIcon;prIcon=mxgraph.aws4.neptune;" vertex="1" parent="1">
          <mxGeometry x="-795.62" y="400" width="80" height="110" as="geometry" />
        </mxCell>
        <mxCell id="Nw94OMGiKXlHq63f8jNe-59" value="AWS Fargate" style="sketch=0;outlineConnect=0;fontColor=#232F3E;gradientColor=none;strokeColor=#ffffff;fillColor=#232F3E;dashed=0;verticalLabelPosition=middle;verticalAlign=bottom;align=center;html=1;whiteSpace=wrap;fontSize=10;fontStyle=1;spacing=3;shape=mxgraph.aws4.productIcon;prIcon=mxgraph.aws4.fargate;" vertex="1" parent="1">
          <mxGeometry x="-110" y="410" width="80" height="100" as="geometry" />
        </mxCell>
        <mxCell id="Nw94OMGiKXlHq63f8jNe-60" value="AWS Step Functions" style="sketch=0;outlineConnect=0;fontColor=#232F3E;gradientColor=none;strokeColor=#ffffff;fillColor=#232F3E;dashed=0;verticalLabelPosition=middle;verticalAlign=bottom;align=center;html=1;whiteSpace=wrap;fontSize=10;fontStyle=1;spacing=3;shape=mxgraph.aws4.productIcon;prIcon=mxgraph.aws4.step_functions;" vertex="1" parent="1">
          <mxGeometry x="-430" y="720" width="80" height="110" as="geometry" />
        </mxCell>
        <mxCell id="Nw94OMGiKXlHq63f8jNe-61" value="Amazon CloudWatch" style="sketch=0;outlineConnect=0;fontColor=#232F3E;gradientColor=none;strokeColor=#ffffff;fillColor=#232F3E;dashed=0;verticalLabelPosition=middle;verticalAlign=bottom;align=center;html=1;whiteSpace=wrap;fontSize=10;fontStyle=1;spacing=3;shape=mxgraph.aws4.productIcon;prIcon=mxgraph.aws4.cloudwatch;" vertex="1" parent="1">
          <mxGeometry x="-715.62" y="680" width="80" height="110" as="geometry" />
        </mxCell>
        <mxCell id="Nw94OMGiKXlHq63f8jNe-62" value="AWS X-Ray" style="sketch=0;outlineConnect=0;fontColor=#232F3E;gradientColor=none;strokeColor=#ffffff;fillColor=#232F3E;dashed=0;verticalLabelPosition=middle;verticalAlign=bottom;align=center;html=1;whiteSpace=wrap;fontSize=10;fontStyle=1;spacing=3;shape=mxgraph.aws4.productIcon;prIcon=mxgraph.aws4.xray;" vertex="1" parent="1">
          <mxGeometry x="-230" y="720" width="80" height="100" as="geometry" />
        </mxCell>
        <mxCell id="Nw94OMGiKXlHq63f8jNe-63" value="" style="sketch=0;points=[[0,0,0],[0.25,0,0],[0.5,0,0],[0.75,0,0],[1,0,0],[0,1,0],[0.25,1,0],[0.5,1,0],[0.75,1,0],[1,1,0],[0,0.25,0],[0,0.5,0],[0,0.75,0],[1,0.25,0],[1,0.5,0],[1,0.75,0]];outlineConnect=0;fontColor=#232F3E;gradientColor=#FF4F8B;gradientDirection=north;fillColor=#BC1356;strokeColor=#ffffff;dashed=0;verticalLabelPosition=bottom;verticalAlign=top;align=center;html=1;fontSize=12;fontStyle=0;aspect=fixed;shape=mxgraph.aws4.resourceIcon;resIcon=mxgraph.aws4.eventbridge;" vertex="1" parent="1">
          <mxGeometry x="-128" y="725" width="78" height="78" as="geometry" />
        </mxCell>
        <mxCell id="Nw94OMGiKXlHq63f8jNe-65" value="Amazon Macie" style="rounded=0;whiteSpace=wrap;html=1;" vertex="1" parent="1">
          <mxGeometry x="-740" y="1000" width="70" height="60" as="geometry" />
        </mxCell>
        <mxCell id="Nw94OMGiKXlHq63f8jNe-66" value="Amazon Athena" style="rounded=0;whiteSpace=wrap;html=1;" vertex="1" parent="1">
          <mxGeometry x="-830" y="1000" width="70" height="60" as="geometry" />
        </mxCell>
        <mxCell id="Nw94OMGiKXlHq63f8jNe-67" value="Amazon S3" style="sketch=0;outlineConnect=0;fontColor=#232F3E;gradientColor=none;strokeColor=#ffffff;fillColor=#232F3E;dashed=0;verticalLabelPosition=middle;verticalAlign=bottom;align=center;html=1;whiteSpace=wrap;fontSize=10;fontStyle=1;spacing=3;shape=mxgraph.aws4.productIcon;prIcon=mxgraph.aws4.s3;" vertex="1" parent="1">
          <mxGeometry x="-800" y="880" width="80" height="100" as="geometry" />
        </mxCell>
        <mxCell id="Nw94OMGiKXlHq63f8jNe-68" value="AWS Glue" style="sketch=0;outlineConnect=0;fontColor=#232F3E;gradientColor=none;strokeColor=#ffffff;fillColor=#232F3E;dashed=0;verticalLabelPosition=middle;verticalAlign=bottom;align=center;html=1;whiteSpace=wrap;fontSize=10;fontStyle=1;spacing=3;shape=mxgraph.aws4.productIcon;prIcon=mxgraph.aws4.glue;" vertex="1" parent="1">
          <mxGeometry x="-138" y="140" width="80" height="100" as="geometry" />
        </mxCell>
        <mxCell id="Nw94OMGiKXlHq63f8jNe-69" value="Elastic Beanstalk = fine tune infrastructure for optimization &amp;amp; performance costs&lt;br&gt;Amplify = truly serverless &amp;amp; provides Auth/storage capabilities (simple)" style="whiteSpace=wrap;html=1;" vertex="1" parent="1">
          <mxGeometry x="-830" y="40" width="235" height="70" as="geometry" />
        </mxCell>
        <mxCell id="Nw94OMGiKXlHq63f8jNe-70" value="Amazon SNS" style="sketch=0;outlineConnect=0;fontColor=#232F3E;gradientColor=none;strokeColor=#ffffff;fillColor=#232F3E;dashed=0;verticalLabelPosition=middle;verticalAlign=bottom;align=center;html=1;whiteSpace=wrap;fontSize=10;fontStyle=1;spacing=3;shape=mxgraph.aws4.productIcon;prIcon=mxgraph.aws4.sns;" vertex="1" parent="1">
          <mxGeometry x="-500" y="130" width="80" height="100" as="geometry" />
        </mxCell>
        <mxCell id="Nw94OMGiKXlHq63f8jNe-71" value="Amazon SQS" style="sketch=0;outlineConnect=0;fontColor=#232F3E;gradientColor=none;strokeColor=#ffffff;fillColor=#232F3E;dashed=0;verticalLabelPosition=middle;verticalAlign=bottom;align=center;html=1;whiteSpace=wrap;fontSize=10;fontStyle=1;spacing=3;shape=mxgraph.aws4.productIcon;prIcon=mxgraph.aws4.sqs;" vertex="1" parent="1">
          <mxGeometry x="-400" y="130" width="80" height="100" as="geometry" />
        </mxCell>
        <mxCell id="Nw94OMGiKXlHq63f8jNe-72" value="SNS = notifications&lt;br&gt;SQS = polling&lt;br&gt;Standard: Unlimited Throughput, At-least once delivery (occassionally), best-effort ordering&lt;br&gt;FIFO: High Throughput, exactly once processing, FIFO" style="rounded=0;whiteSpace=wrap;html=1;" vertex="1" parent="1">
          <mxGeometry x="-541.25" y="45" width="351.25" height="75" as="geometry" />
        </mxCell>
        <mxCell id="Nw94OMGiKXlHq63f8jNe-73" value="Neptune = graph DB&lt;br&gt;DynamoDB = NoSQL DB&lt;br&gt;Redshift = data warehousing&lt;br&gt;DocumentDB = MongoDB" style="rounded=0;whiteSpace=wrap;html=1;" vertex="1" parent="1">
          <mxGeometry x="-811.25" y="300" width="351.25" height="75" as="geometry" />
        </mxCell>
        <mxCell id="Nw94OMGiKXlHq63f8jNe-74" value="Fargate = serverless containers for both&lt;br&gt;ECS = Docker containers (cheaper)&lt;br&gt;EKS = Kubernetes (larger applications of containers)&lt;br&gt;ECR = container imaging" style="rounded=0;whiteSpace=wrap;html=1;" vertex="1" parent="1">
          <mxGeometry x="-351" y="310" width="351.25" height="75" as="geometry" />
        </mxCell>
        <mxCell id="Nw94OMGiKXlHq63f8jNe-75" value="Amazon ECR" style="sketch=0;outlineConnect=0;fontColor=#232F3E;gradientColor=none;strokeColor=#ffffff;fillColor=#232F3E;dashed=0;verticalLabelPosition=middle;verticalAlign=bottom;align=center;html=1;whiteSpace=wrap;fontSize=10;fontStyle=1;spacing=3;shape=mxgraph.aws4.productIcon;prIcon=mxgraph.aws4.ecr;" vertex="1" parent="1">
          <mxGeometry x="-210" y="520" width="80" height="100" as="geometry" />
        </mxCell>
        <mxCell id="Nw94OMGiKXlHq63f8jNe-76" value="Lambda = max runtime (15min)&lt;br&gt;Use containers afterwards&lt;br&gt;ECS = clustering EC2 instances &amp;amp; uses Docker to instantiate containers" style="rounded=0;whiteSpace=wrap;html=1;" vertex="1" parent="1">
          <mxGeometry x="-410" y="630" width="351.25" height="75" as="geometry" />
        </mxCell>
        <mxCell id="Nw94OMGiKXlHq63f8jNe-77" value="" style="image;sketch=0;aspect=fixed;html=1;points=[];align=center;fontSize=12;image=img/lib/mscae/Docker.svg;" vertex="1" parent="1">
          <mxGeometry x="-425" y="898.5" width="75" height="61.5" as="geometry" />
        </mxCell>
        <mxCell id="Nw94OMGiKXlHq63f8jNe-78" value="Docker is a platform for developing, shipping, and running applications separate from your infrastructure. Like a container&lt;br&gt;Kubernetes = managing containerized workloads &amp;amp; services" style="rounded=0;whiteSpace=wrap;html=1;" vertex="1" parent="1">
          <mxGeometry x="-320" y="885" width="275.63" height="95" as="geometry" />
        </mxCell>
        <mxCell id="Nw94OMGiKXlHq63f8jNe-81" value="DynamoDB Streams = react to changes in real-time&lt;br&gt;DynamoDB Accelerator (DAX) = microsecond latency for cached data - 5 minute TTL&lt;br&gt;Max size = 400kb" style="rounded=0;whiteSpace=wrap;html=1;" vertex="1" parent="1">
          <mxGeometry x="-806.87" y="513" width="351.25" height="75" as="geometry" />
        </mxCell>
        <mxCell id="Nw94OMGiKXlHq63f8jNe-82" value="Amazon ElastiCache" style="sketch=0;outlineConnect=0;fontColor=#232F3E;gradientColor=none;strokeColor=#ffffff;fillColor=#232F3E;dashed=0;verticalLabelPosition=middle;verticalAlign=bottom;align=center;html=1;whiteSpace=wrap;fontSize=10;fontStyle=1;spacing=3;shape=mxgraph.aws4.productIcon;prIcon=mxgraph.aws4.elasticache;" vertex="1" parent="1">
          <mxGeometry x="-1030" y="400" width="80" height="110" as="geometry" />
        </mxCell>
        <mxCell id="Nw94OMGiKXlHq63f8jNe-83" value="ElastiCache: Redis = multi AZ, read replicas, HA&lt;br&gt;Memcached = multi-node for partitioning, no HA, non persistent, no backup / restore, multi-threaded" style="rounded=0;whiteSpace=wrap;html=1;" vertex="1" parent="1">
          <mxGeometry x="-1201" y="310" width="351.25" height="75" as="geometry" />
        </mxCell>
      </root>
    </mxGraphModel>
  </diagram>
</mxfile>
